<?xml version="1.0" encoding="UTF-8" standalone="no"?>
<!-- Created with Inkscape (http://www.inkscape.org/) -->

<svg
   xmlns:dc="http://purl.org/dc/elements/1.1/"
   xmlns:cc="http://creativecommons.org/ns#"
   xmlns:rdf="http://www.w3.org/1999/02/22-rdf-syntax-ns#"
   xmlns:svg="http://www.w3.org/2000/svg"
   xmlns="http://www.w3.org/2000/svg"
   xmlns:sodipodi="http://sodipodi.sourceforge.net/DTD/sodipodi-0.dtd"
   xmlns:inkscape="http://www.inkscape.org/namespaces/inkscape"
   width="495"
   height="494.99997"
   viewBox="0 0 495 494.99998"
   id="svg2"
   version="1.1"
   inkscape:version="0.92.3 (2405546, 2018-03-11)"
   sodipodi:docname="Seal_of_the_Department_of_Environment_and_Natural_Resources.svg">
  <title
     id="title6958">Department of Environment and Natural Resources ( DENR )</title>
  <defs
     id="defs4">
    <clipPath
       clipPathUnits="userSpaceOnUse"
       id="clipPath4451">
      <circle
         style="display:inline;fill:none;stroke:#000000;stroke-width:0.99999994px;stroke-linecap:butt;stroke-linejoin:miter;stroke-opacity:1"
         id="circle4453"
         cx="372.04724"
         cy="530.11328"
         r="228.29448" />
    </clipPath>
    <clipPath
       clipPathUnits="userSpaceOnUse"
       id="clipPath4458">
      <circle
         clip-path="none"
         r="201.66658"
         cy="529.64648"
         cx="371.81357"
         id="circle4460"
         style="display:inline;opacity:0.44900004;fill:none;stroke:#ed1c24;stroke-width:1px;stroke-linecap:butt;stroke-linejoin:miter;stroke-opacity:1" />
    </clipPath>
  </defs>
  <sodipodi:namedview
     id="base"
     pagecolor="#ffffff"
     bordercolor="#666666"
     borderopacity="1.0"
     inkscape:pageopacity="0.0"
     inkscape:pageshadow="2"
     inkscape:zoom="1.057143"
     inkscape:cx="261.67226"
     inkscape:cy="59.943811"
     inkscape:document-units="px"
     inkscape:current-layer="layer5"
     showgrid="false"
     inkscape:object-paths="false"
     inkscape:snap-intersection-paths="false"
     inkscape:object-nodes="false"
     inkscape:snap-smooth-nodes="false"
     inkscape:snap-global="true"
     showguides="true"
     inkscape:guide-bbox="true"
     inkscape:window-width="1080"
     inkscape:window-height="1849"
     inkscape:window-x="-8"
     inkscape:window-y="-8"
     inkscape:window-maximized="1"
     units="px"
     fit-margin-top="0"
     fit-margin-left="0"
     fit-margin-right="0"
     fit-margin-bottom="0"
     inkscape:snap-nodes="false"
     inkscape:snap-object-midpoints="true"
     inkscape:snap-center="true"
     inkscape:snap-bbox="true"
     inkscape:snap-bbox-midpoints="false"
     inkscape:showpageshadow="2"
     inkscape:pagecheckerboard="0"
     inkscape:deskcolor="#d1d1d1" />
  <metadata
     id="metadata7">
    <rdf:RDF>
      <cc:Work
         rdf:about="">
        <dc:format>image/svg+xml</dc:format>
        <dc:type
           rdf:resource="http://purl.org/dc/dcmitype/StillImage" />
        <dc:title>Department of Environment and Natural Resources ( DENR )</dc:title>
      </cc:Work>
    </rdf:RDF>
  </metadata>
  <g
     inkscape:groupmode="layer"
     id="layer5"
     inkscape:label="Blue"
     transform="translate(-612.15509,-287.67891)">
    <g
       id="g1172">
      <ellipse
         id="path3760-4-6"
         style="color:#000000;display:inline;overflow:visible;visibility:visible;fill:#ffffff;fill-opacity:1;fill-rule:nonzero;stroke:#006c35;stroke-width:4.9242425;stroke-miterlimit:4;stroke-dasharray:none;stroke-opacity:1;marker:none;enable-background:accumulate"
         cx="859.62817"
         cy="534.85474"
         rx="241.28787"
         ry="241.28786" />
      <circle
         transform="rotate(111.90243)"
         r="204.51747"
         cy="-997.71381"
         cx="175.84811"
         id="path174"
         style="fill:none;fill-opacity:1;stroke:none;stroke-width:0.96504927;stroke-miterlimit:4;stroke-dasharray:none;stroke-opacity:1" />
      <circle
         transform="matrix(-0.20384635,0.97900289,0.97900289,0.20384635,0,0)"
         r="227.41826"
         cy="951.16846"
         cx="348.76044"
         id="path174-0"
         style="fill:none;fill-opacity:1;stroke:none;stroke-width:1.07311046;stroke-miterlimit:4;stroke-dasharray:none;stroke-opacity:1" />
      <g
         id="text983"
         style="font-style:normal;font-weight:normal;font-size:34px;line-height:1.25;font-family:sans-serif;letter-spacing:2px;word-spacing:2px;fill:#006c35;fill-opacity:1;stroke:none"
         aria-label="DEPARTMENT OF ENVIRONMENT AND NATURAL RESOURCES">
        <path
           id="path1014"
           style="font-style:normal;font-variant:normal;font-weight:bold;font-stretch:normal;font-size:34px;font-family:'Times New Roman';-inkscape-font-specification:'Times New Roman, Bold';letter-spacing:2px;word-spacing:2px;fill:#006c35;fill-opacity:1"
           d="m 783.25764,725.22686 -0.26247,0.55535 -0.67543,-0.31922 q -0.88557,-0.41855 -1.47856,-0.36829 -0.61509,0.0582 -1.06724,0.43207 -0.28406,0.25136 -1.02893,1.82737 l -6.32781,13.38855 q -0.73777,1.56099 -0.75711,2.02927 -0.0193,0.46829 0.35621,0.99466 0.35343,0.5343 1.20898,0.93865 l 0.67543,0.31923 -0.26248,0.55535 -9.11081,-4.30603 q -3.64733,-1.72383 -5.40055,-3.76437 -2.14212,-2.49978 -2.3746,-5.62109 -0.2475,-3.12841 1.22095,-6.23539 1.01444,-2.14637 2.56325,-3.63621 1.54172,-1.47483 3.19784,-2.14272 1.64903,-0.65289 3.43046,-0.69233 1.75932,-0.0315 4.01509,0.55719 1.00071,0.25262 2.96697,1.18193 z m -16.83313,15.52968 7.50541,-15.88014 q 0.5959,-1.26081 0.61061,-1.60274 0.0147,-0.34193 -0.19954,-0.62681 -0.29885,-0.41668 -1.06434,-0.77848 -2.5066,-1.18469 -4.63615,-0.0979 -2.89362,1.4602 -5.19207,6.3233 -1.85152,3.9175 -1.72739,6.8407 0.11016,2.29228 1.329,3.67629 0.86078,0.97606 3.37447,2.14574 z" />
        <path
           id="path1016"
           style="font-style:normal;font-variant:normal;font-weight:bold;font-stretch:normal;font-size:34px;font-family:'Times New Roman';-inkscape-font-specification:'Times New Roman, Bold';letter-spacing:2px;word-spacing:2px;fill:#006c35;fill-opacity:1"
           d="m 740.49256,726.82195 4.91897,-7.732 -0.3782,-0.2406 q -1.80693,-1.14954 -3.34116,-0.53181 -1.53422,0.61774 -3.1663,2.68831 l -0.53228,-0.33863 6.32694,-9.94514 0.53227,0.33863 q -0.86561,1.73177 -0.97875,3.11584 -0.12715,1.37516 0.36443,2.17981 0.48268,0.81866 1.84139,1.68305 l 3.40407,-5.35077 q 0.99805,-1.56881 1.09476,-1.99919 0.0827,-0.4393 -0.1389,-0.8951 -0.22161,-0.45581 -1.03403,-0.97266 l -1.13459,-0.7218 q -2.66137,-1.69313 -5.04238,-1.47636 -2.39502,0.20785 -4.69939,2.28359 l -0.51827,-0.32971 4.69516,-5.49354 16.41649,10.4439 -0.32972,0.51827 -0.63032,-0.40101 q -0.82643,-0.52576 -1.51783,-0.55241 -0.48894,-0.0356 -0.98802,0.31591 -0.36795,0.23815 -1.27689,1.66688 l -7.94877,12.49446 q -0.81983,1.28867 -0.93693,1.62738 -0.17181,0.57936 0.0371,1.0861 0.28276,0.73083 1.20724,1.31897 l 0.63033,0.401 -0.32972,0.51827 -15.89822,-10.11418 3.57338,-5.61691 0.53228,0.33863 q -0.90373,2.31748 -0.73167,3.68624 0.15807,1.35985 1.23543,2.63554 0.624,0.75115 2.78112,2.12347 z" />
        <path
           id="path1018"
           style="font-style:normal;font-variant:normal;font-weight:bold;font-stretch:normal;font-size:34px;font-family:'Times New Roman';-inkscape-font-specification:'Times New Roman, Bold';letter-spacing:2px;word-spacing:2px;fill:#006c35;fill-opacity:1"
           d="m 725.42234,702.6172 3.91174,-4.86449 q 1.14439,-1.42312 1.2779,-1.93355 0.11018,-0.5079 -0.15284,-1.08156 -0.27595,-0.58406 -1.46619,-1.54119 l 0.38493,-0.47869 8.91391,7.16805 -0.38493,0.47869 q -1.21612,-0.97793 -1.81992,-1.10132 -0.62714,-0.12084 -1.08662,0.10616 -0.47243,0.2166 -1.61682,1.63972 l -9.15513,11.38497 q -1.14439,1.42312 -1.25456,1.93102 -0.13352,0.51043 0.1295,1.08409 0.26301,0.57366 1.46619,1.54119 l -0.38493,0.47868 -7.64604,-6.1485 q -3.77774,-3.03783 -4.33883,-5.70458 -0.56108,-2.66675 1.06187,-4.68499 1.37327,-1.70775 3.41207,-2.07078 2.03881,-0.36303 4.25553,0.69521 1.50462,0.69864 4.49317,3.10187 z m -6.90796,8.59047 6.09648,-7.58135 q -0.40613,-0.36919 -0.62606,-0.54606 -1.57837,-1.26923 -3.1813,-1.02437 -1.61333,0.2578 -3.19467,2.2243 -1.57094,1.95356 -1.44532,3.54581 0.12563,1.59226 1.82043,2.95512 z" />
        <path
           id="path1020"
           style="font-style:normal;font-variant:normal;font-weight:bold;font-stretch:normal;font-size:34px;font-family:'Times New Roman';-inkscape-font-specification:'Times New Roman, Bold';letter-spacing:2px;word-spacing:2px;fill:#006c35;fill-opacity:1"
           d="m 708.61795,682.18645 5.58255,5.66319 2.22494,-0.8645 q 1.10665,-0.43816 1.61504,-0.93931 0.6739,-0.66431 0.45701,-1.52284 -0.12551,-0.50569 -1.26631,-1.85216 l 0.43745,-0.43122 5.25622,5.33215 -0.43744,0.43122 q -0.98084,-0.73488 -2.10793,-0.71948 -1.13892,0.0271 -3.77564,1.01773 l -18.44492,6.87615 -0.22143,-0.22463 7.44802,-18.74134 q 1.0522,-2.66904 1.01248,-3.67891 -0.0297,-0.76327 -0.69321,-1.55457 l 0.43745,-0.43122 7.64542,7.75586 -0.43745,0.43122 -0.31468,-0.31922 q -0.92071,-0.93402 -1.55376,-1.05595 -0.44557,-0.0736 -0.80026,0.27601 -0.21281,0.20978 -0.36752,0.50216 -0.0831,0.12853 -0.53708,1.22878 z m -0.47864,1.26442 -3.16709,7.83093 7.94547,-2.98352 z" />
        <path
           id="path1022"
           style="font-style:normal;font-variant:normal;font-weight:bold;font-stretch:normal;font-size:34px;font-family:'Times New Roman';-inkscape-font-specification:'Times New Roman, Bold';letter-spacing:2px;word-spacing:2px;fill:#006c35;fill-opacity:1"
           d="m 690.92793,667.73304 5.01902,-3.822 q 1.45288,-1.10637 1.70516,-1.56975 0.22901,-0.46654 0.11158,-1.08659 -0.11744,-0.62006 -1.05282,-1.8484 l 0.48869,-0.37214 6.98019,9.16633 -0.48869,0.37214 q -0.94545,-1.24155 -1.50189,-1.50643 -0.57972,-0.26802 -1.08029,-0.15811 -0.51064,0.0967 -1.96351,1.20308 l -11.62301,8.85096 q -1.45288,1.10637 -1.68189,1.5729 -0.25228,0.46338 -0.13485,1.08344 0.11743,0.62005 1.05282,1.8484 l -0.4887,0.37214 -6.33647,-8.32102 q -2.47425,-3.24916 -3.17178,-5.09684 -0.69753,-1.84768 -0.20657,-3.72398 0.47776,-1.86624 2.10234,-3.10336 1.9812,-1.50869 4.36183,-1.0679 1.51289,0.28776 3.16952,1.61375 l 2.78358,-8.92238 q 0.5318,-1.74046 0.55081,-2.31835 -0.003,-0.85332 -0.50643,-1.59672 l 0.4887,-0.37215 4.29472,5.63981 -3.76722,11.98766 z m -8.7833,6.68851 7.84553,-5.9744 -0.5733,-0.75285 q -1.39805,-1.83591 -2.42224,-2.49581 -1.03741,-0.64984 -2.30139,-0.50113 -1.28725,0.14556 -2.7005,1.22175 -2.04724,1.55898 -2.2904,3.26745 -0.25322,1.69525 1.3661,3.82174 z" />
        <path
           id="path1024"
           style="font-style:normal;font-variant:normal;font-weight:bold;font-stretch:normal;font-size:34px;font-family:'Times New Roman';-inkscape-font-specification:'Times New Roman, Bold';letter-spacing:2px;word-spacing:2px;fill:#006c35;fill-opacity:1"
           d="m 659.0345,641.24044 5.26113,-3.07284 0.30143,0.51608 q -1.55268,1.52209 -2.01459,2.54168 -0.47625,1.02797 -0.37997,2.27909 0.0601,0.69546 0.85555,2.05733 l 0.84566,1.44789 14.99495,-8.75802 q 1.4909,-0.87077 1.77152,-1.24616 0.27225,-0.38972 0.28265,-1.03025 -0.0123,-0.64649 -0.49793,-1.47795 l -0.37678,-0.6451 0.53042,-0.3098 5.94473,10.17822 -0.53041,0.3098 -0.37678,-0.6451 q -0.494,-0.8458 -1.09647,-1.18604 -0.41839,-0.25551 -1.03139,-0.18586 -0.43615,0.0432 -1.89838,0.89729 l -14.99495,8.75801 0.82054,1.40488 q 1.14709,1.96397 2.49766,2.36714 1.88962,0.56899 4.23252,-0.35722 l 0.31817,0.54475 -5.26113,3.07284 z" />
        <path
           id="path1026"
           style="font-style:normal;font-variant:normal;font-weight:bold;font-stretch:normal;font-size:34px;font-family:'Times New Roman';-inkscape-font-specification:'Times New Roman, Bold';letter-spacing:2px;word-spacing:2px;fill:#006c35;fill-opacity:1"
           d="m 663.43315,614.98224 -16.04984,-0.077 -3.44757,-8.49084 0.56913,-0.23109 0.27481,0.67681 q 0.37473,0.92292 0.92259,1.34551 0.37149,0.29711 0.97278,0.32173 0.43787,0.0193 1.99145,-0.61149 l 13.75146,-5.58357 q 1.59972,-0.64954 1.93095,-0.98113 0.33123,-0.33158 0.42652,-0.97948 0.0799,-0.64166 -0.27609,-1.51843 l -0.27481,-0.6768 0.56913,-0.23109 4.42189,10.89042 -0.56914,0.23109 -0.2748,-0.67681 q -0.37474,-0.92291 -0.9226,-1.34551 -0.37149,-0.29711 -0.98816,-0.31549 -0.43787,-0.0193 -2.00683,0.61775 l -15.45886,6.27682 22.27519,0.27281 0.14989,0.36917 -15.59136,15.79126 14.68976,-5.96454 q 1.5382,-0.62456 1.86076,-0.84512 0.6879,-0.51225 0.91156,-1.37353 0.20204,-0.87042 -0.3788,-2.30094 l 0.56913,-0.23109 2.89796,7.13723 -0.56914,0.23109 -0.0874,-0.21535 q -0.26567,-0.69844 -0.73997,-1.20465 -0.48969,-0.49996 -1.01453,-0.64522 -0.52485,-0.14525 -1.3165,-0.0209 -0.18169,0.0379 -1.58145,0.60629 l -13.19771,5.35872 q -1.58434,0.6433 -1.90019,0.96864 -0.33123,0.33159 -0.41114,0.97324 -0.0953,0.6479 0.26071,1.52467 l 0.26856,0.66142 -0.56913,0.23109 -3.46006,-8.5216 z" />
        <path
           id="path1028"
           style="font-style:normal;font-variant:normal;font-weight:bold;font-stretch:normal;font-size:34px;font-family:'Times New Roman';-inkscape-font-specification:'Times New Roman, Bold';letter-spacing:2px;word-spacing:2px;fill:#006c35;fill-opacity:1"
           d="m 641.43229,591.45041 8.8955,-2.20229 -0.10772,-0.43511 q -0.51467,-2.07884 -2.05139,-2.69035 -1.53672,-0.61151 -4.14673,-0.23898 l -0.1516,-0.61237 11.44167,-2.83267 0.15161,0.61238 q -1.82147,0.65618 -2.85838,1.5799 -1.04091,0.90761 -1.24031,1.82921 -0.21552,0.9256 0.17148,2.48876 l 6.15594,-1.52405 q 1.80489,-0.44684 2.17186,-0.69162 0.36297,-0.26089 0.51708,-0.74372 0.15411,-0.48282 -0.0773,-1.4175 l -0.32316,-1.30531 q -0.75804,-3.06186 -2.63098,-4.54788 -1.87694,-1.50214 -4.97713,-1.58976 l -0.14761,-0.59625 7.18895,-0.73653 4.67588,18.88682 -0.59625,0.14762 -0.17954,-0.72517 q -0.23539,-0.95079 -0.71743,-1.44715 -0.32934,-0.36314 -0.93311,-0.4531 -0.43065,-0.0815 -2.07438,0.32543 l -14.37462,3.55878 q -1.48258,0.36705 -1.80105,0.53141 -0.52413,0.30079 -0.72259,0.8117 -0.29961,0.72408 -0.0363,1.78768 l 0.17954,0.72517 -0.59626,0.14762 -4.52827,-18.29057 6.46213,-1.59985 0.15161,0.61237 q -2.25321,1.05381 -3.07312,2.16325 -0.8239,1.09332 -0.92434,2.76005 -0.0666,0.97426 0.54776,3.45598 z" />
        <path
           id="path1030"
           style="font-style:normal;font-variant:normal;font-weight:bold;font-stretch:normal;font-size:34px;font-family:'Times New Roman';-inkscape-font-specification:'Times New Roman, Bold';letter-spacing:2px;word-spacing:2px;fill:#006c35;fill-opacity:1"
           d="m 635.02457,565.54047 12.56505,-12.66522 -9.6121,1.13356 q -2.01145,0.23721 -2.65235,0.89788 -0.86294,0.90416 -0.61025,2.76334 l -0.61003,0.0719 -0.87108,-7.38631 0.61003,-0.0719 q 0.34858,1.39653 0.70368,1.85615 0.33667,0.44507 1.02922,0.64758 0.67411,0.18797 2.2569,0.001 l 18.61417,-2.19518 0.0661,0.56056 -16.83119,17.31405 14.21206,-1.67604 q 1.92902,-0.22749 2.50195,-1.18104 0.57098,-0.97003 0.43682,-2.10765 l -0.0622,-0.5276 0.61003,-0.0719 0.93524,7.9304 -0.61003,0.0719 q -0.23426,-1.84464 -1.06174,-2.48258 -0.82748,-0.63795 -2.60811,-0.42796 l -15.77835,1.86076 -0.53716,0.54813 q -0.80671,0.81395 -1.02283,1.39108 -0.21612,0.57714 -0.12854,1.60324 l -0.61003,0.0719 z" />
        <path
           id="path1032"
           style="font-style:normal;font-variant:normal;font-weight:bold;font-stretch:normal;font-size:34px;font-family:'Times New Roman';-inkscape-font-specification:'Times New Roman, Bold';letter-spacing:2px;word-spacing:2px;fill:#006c35;fill-opacity:1"
           d="m 633.09907,523.27285 6.09262,0.0432 -0.004,0.59764 q -2.11212,0.51628 -3.02977,1.15724 -0.93426,0.64085 -1.49011,1.76584 -0.3033,0.62872 -0.31449,2.20583 l -0.0119,1.67671 17.3648,0.12324 q 1.72652,0.0122 2.15944,-0.1673 0.43305,-0.19615 0.76896,-0.74163 0.31942,-0.5622 0.32626,-1.52507 l 0.005,-0.74705 0.61424,0.004 -0.0837,11.78681 -0.61424,-0.004 0.005,-0.74705 q 0.007,-0.97947 -0.33743,-1.57958 -0.22935,-0.43328 -0.79202,-0.6863 -0.39714,-0.18544 -2.09045,-0.19746 l -17.3648,-0.12323 -0.0116,1.62691 q -0.0161,2.27436 0.93943,3.31046 1.33444,1.45384 3.8219,1.85334 l -0.004,0.63084 -6.09262,-0.0432 z" />
        <path
           id="path1034"
           style="font-style:normal;font-variant:normal;font-weight:bold;font-stretch:normal;font-size:34px;font-family:'Times New Roman';-inkscape-font-specification:'Times New Roman, Bold';letter-spacing:2px;word-spacing:2px;fill:#006c35;fill-opacity:1"
           d="m 637.10325,490.90766 q 0.86259,-5.31302 4.79389,-7.94474 3.93456,-2.64799 8.85031,-1.66191 4.19954,0.84241 6.89685,3.94025 3.57907,4.10441 2.38728,10.04562 -1.19505,5.9575 -5.88485,8.40319 -3.70625,1.93185 -8.08484,1.05352 -4.91575,-0.98608 -7.51813,-4.97923 -2.61539,-4.01269 -1.44051,-8.8567 z m 1.08093,0.0136 q -0.60732,3.02758 2.16864,5.22686 2.28132,1.79527 7.03429,2.7487 5.64822,1.13301 8.7486,-0.3108 2.16571,-1.00482 2.66528,-3.49524 0.33631,-1.67657 -0.25226,-2.96296 -0.75441,-1.64137 -2.87324,-2.89608 -2.1351,-1.25798 -5.81377,-1.9959 -4.3786,-0.87833 -6.70674,-0.49874 -2.34442,0.37634 -3.49435,1.46638 -1.14667,1.07377 -1.47645,2.71778 z" />
        <path
           id="path1036"
           style="font-style:normal;font-variant:normal;font-weight:bold;font-stretch:normal;font-size:34px;font-family:'Times New Roman';-inkscape-font-specification:'Times New Roman, Bold';letter-spacing:2px;word-spacing:2px;fill:#006c35;fill-opacity:1"
           d="m 645.62581,464.9102 8.77796,2.90786 0.20361,-0.61461 q 0.46985,-1.41834 0.34192,-2.45758 -0.12793,-1.03924 -0.93293,-1.98797 -0.79977,-0.9645 -2.4549,-1.72265 l 0.18272,-0.55158 10.73213,3.55522 -0.18272,0.55157 q -3.14075,-0.70814 -4.54582,0.31295 -1.41561,1.00011 -1.97421,2.68636 l -0.2036,0.61462 6.54013,2.16654 q 1.63897,0.54294 2.10614,0.50532 0.47239,-0.0534 0.95986,-0.46903 0.47693,-0.43662 0.7745,-1.33491 l 0.23493,-0.70917 0.58309,0.19316 -3.70139,11.17339 -0.58309,-0.19316 0.23492,-0.70917 q 0.30802,-0.92981 0.16501,-1.60677 -0.0849,-0.48284 -0.54762,-0.88097 -0.3208,-0.29864 -1.92826,-0.83114 l -14.05735,-4.65676 q -1.63897,-0.54294 -2.10614,-0.50532 -0.46717,0.0376 -0.9441,0.47425 -0.48746,0.41564 -0.78504,1.31393 l -0.23492,0.70917 -0.5831,-0.19316 5.97234,-18.02871 6.13039,2.0308 -0.21404,0.64614 q -2.23212,-0.49459 -3.57503,0.0749 -1.33769,0.55373 -2.33224,2.13054 -0.54962,0.86726 -1.39536,3.42027 z" />
        <path
           id="path1038"
           style="font-style:normal;font-variant:normal;font-weight:bold;font-stretch:normal;font-size:34px;font-family:'Times New Roman';-inkscape-font-specification:'Times New Roman, Bold';letter-spacing:2px;word-spacing:2px;fill:#006c35;fill-opacity:1"
           d="m 660.24995,430.32443 8.07721,4.32882 0.21174,-0.39508 q 1.01162,-1.88761 0.28122,-3.37151 -0.7304,-1.4839 -2.91689,-2.95707 l 0.298,-0.55604 10.38917,5.56787 -0.298,0.55604 q -1.79149,-0.73409 -3.18014,-0.74373 -1.38082,-0.0243 -2.14658,0.52594 -0.78039,0.54237 -1.54107,1.96174 l 5.58967,2.99566 q 1.63885,0.87831 2.07524,0.94267 0.44424,0.0497 0.88226,-0.20525 0.43801,-0.25497 0.89285,-1.10367 l 0.63521,-1.18524 q 1.48999,-2.7802 1.09631,-5.13842 -0.38583,-2.37286 -2.6276,-4.51606 l 0.29015,-0.54141 5.8283,4.27252 -9.19089,17.14945 -0.54141,-0.29016 0.35289,-0.65847 q 0.46269,-0.86332 0.43771,-1.55478 -9.6e-4,-0.49024 -0.38868,-0.96172 -0.26492,-0.34917 -1.75745,-1.14906 l -13.05231,-6.99512 q -1.3462,-0.72147 -1.6927,-0.81299 -0.59056,-0.12814 -1.08031,0.11794 -0.70772,0.33646 -1.22529,1.30221 l -0.3529,0.65847 -0.5414,-0.29015 8.90073,-16.60804 5.86769,3.14466 -0.298,0.55604 q -2.37841,-0.72843 -3.73053,-0.4548 -1.34428,0.25901 -2.53609,1.42848 -0.70255,0.67827 -1.91022,2.9317 z" />
        <path
           id="path1040"
           style="font-style:normal;font-variant:normal;font-weight:bold;font-stretch:normal;font-size:34px;font-family:'Times New Roman';-inkscape-font-specification:'Times New Roman, Bold';letter-spacing:2px;word-spacing:2px;fill:#006c35;fill-opacity:1"
           d="m 672.87074,406.79611 17.81435,-0.96804 -7.89025,-5.60548 q -1.65113,-1.17302 -2.56961,-1.11277 -1.24648,0.092 -2.30589,1.64052 l -0.50076,-0.35575 4.30747,-6.06318 0.50075,0.35575 q -0.678,1.26968 -0.72284,1.84876 -0.0488,0.55594 0.32915,1.17061 0.37398,0.59152 1.67323,1.51455 l 15.27975,10.85521 -0.3269,0.46015 -24.0966,1.55536 11.6662,8.28803 q 1.58346,1.12494 2.64794,0.80186 1.0741,-0.33662 1.73752,-1.27046 l 0.30768,-0.43308 0.50075,0.35575 -4.62476,6.50979 -0.50075,-0.35575 q 1.06333,-1.52541 0.87736,-2.55357 -0.18597,-1.02816 -1.64763,-2.06657 l -12.95192,-9.20144 -0.76605,0.0464 q -1.14427,0.0627 -1.69164,0.34592 -0.54736,0.28316 -1.17055,1.10303 l -0.50076,-0.35575 z" />
        <path
           id="path1042"
           style="font-style:normal;font-variant:normal;font-weight:bold;font-stretch:normal;font-size:34px;font-family:'Times New Roman';-inkscape-font-specification:'Times New Roman, Bold';letter-spacing:2px;word-spacing:2px;fill:#006c35;fill-opacity:1"
           d="m 701.81309,372.07324 0.45004,0.41806 q -0.69016,1.03567 -0.53055,2.49817 0.13361,1.07581 1.44601,4.17566 l 7.32459,17.38596 -0.37287,0.40139 -18.36605,-6.52431 q -3.32095,-1.18157 -4.06217,-1.213 -0.72993,-0.0436 -1.73201,0.81562 l -0.45004,-0.41806 7.3443,-7.90615 0.45004,0.41806 -0.24857,0.2676 q -0.99431,1.07037 -1.08828,1.70817 -0.0774,0.44924 0.27531,0.77691 0.21894,0.20338 0.61341,0.38855 0.38231,0.17386 2.20354,0.82334 l 11.47562,4.11158 -4.28204,-10.05043 q -0.78345,-1.81542 -1.1092,-2.36728 -0.32576,-0.55185 -0.642,-0.84562 -0.3649,-0.33897 -0.82544,-0.40423 -0.46054,-0.0653 -0.95677,0.17621 -0.69263,0.33094 -1.49485,1.19453 l -0.45004,-0.41806 z" />
        <path
           id="path1044"
           style="font-style:normal;font-variant:normal;font-weight:bold;font-stretch:normal;font-size:34px;font-family:'Times New Roman';-inkscape-font-specification:'Times New Roman, Bold';letter-spacing:2px;word-spacing:2px;fill:#006c35;fill-opacity:1"
           d="m 729.1649,377.26484 0.4048,0.46201 -8.85304,7.75684 -0.40479,-0.46201 0.56189,-0.49232 q 0.73672,-0.64549 0.95649,-1.30157 0.17148,-0.45927 -0.0257,-1.03698 -0.12522,-0.42003 -1.24116,-1.69367 l -9.75895,-11.13809 q -1.13782,-1.29862 -1.55963,-1.50292 -0.4218,-0.20431 -1.05422,-0.0696 -0.63087,0.11131 -1.34261,0.73492 l -0.5619,0.49232 -0.4048,-0.46201 8.85304,-7.75684 0.4048,0.46201 -0.5619,0.49232 q -0.73671,0.6455 -0.95648,1.30158 -0.17149,0.45926 0.0132,1.04792 0.12522,0.42002 1.24116,1.69366 l 9.75895,11.1381 q 1.13782,1.29861 1.55962,1.50292 0.4343,0.19336 1.06517,0.0821 0.63242,-0.13473 1.34415,-0.75834 z" />
        <path
           id="path1046"
           style="font-style:normal;font-variant:normal;font-weight:bold;font-stretch:normal;font-size:34px;font-family:'Times New Roman';-inkscape-font-specification:'Times New Roman, Bold';letter-spacing:2px;word-spacing:2px;fill:#006c35;fill-opacity:1"
           d="m 732.97362,362.1539 3.65129,5.14456 q 1.05695,1.48921 1.5116,1.75691 0.45858,0.24455 1.08223,0.148 0.62365,-0.0965 1.88271,-0.99014 l 0.35552,0.50091 -9.39558,6.66841 -0.35552,-0.50092 q 1.2726,-0.90321 1.55602,-1.45045 0.28734,-0.57038 0.1943,-1.07436 -0.0795,-0.5136 -1.13646,-2.00281 l -8.45562,-11.91371 q -1.05695,-1.48921 -1.51553,-1.73376 -0.45465,-0.2677 -1.0783,-0.17115 -0.62365,0.0965 -1.88271,0.99014 l -0.35552,-0.50091 8.52913,-6.05346 q 3.33042,-2.36373 5.20048,-2.99881 1.87006,-0.63509 3.72882,-0.0814 1.84914,0.54016 3.03101,2.20538 1.4413,2.03074 0.92081,4.39523 -0.33841,1.50237 -1.71929,3.11353 l 8.82386,3.08166 q 1.72162,0.58995 2.29855,0.62836 0.85294,0.0257 1.61283,-0.45252 l 0.35552,0.50092 -5.78085,4.1029 -11.85439,-4.16769 z m -6.38976,-9.00297 5.70755,8.04175 0.77168,-0.54769 q 1.88182,-1.3356 2.57575,-2.33706 0.68432,-1.01499 0.57814,-2.28326 -0.10225,-1.29141 -1.13038,-2.74001 -1.48934,-2.09844 -3.18867,-2.39884 -1.6858,-0.31001 -3.86547,1.23699 z" />
        <path
           id="path1048"
           style="font-style:normal;font-variant:normal;font-weight:bold;font-stretch:normal;font-size:34px;font-family:'Times New Roman';-inkscape-font-specification:'Times New Roman, Bold';letter-spacing:2px;word-spacing:2px;fill:#006c35;fill-opacity:1"
           d="m 754.31,334.09548 q 4.67046,-2.67565 9.19046,-1.27899 4.5347,1.38895 6.86425,5.82855 1.99014,3.79278 1.28223,7.83889 -0.93457,5.36492 -6.30032,8.18044 -5.38045,2.82323 -10.23359,0.7202 -3.8346,-1.66256 -5.9096,-5.61704 -2.32955,-4.43961 -0.86637,-8.97576 1.47017,-4.55857 5.97294,-6.69629 z m 0.67009,0.84828 q -2.73433,1.43476 -2.69469,4.97612 0.042,2.90269 2.2944,7.19529 2.67667,5.10114 5.75063,6.60038 2.14436,1.04961 4.39356,-0.13059 1.51417,-0.79452 2.14283,-2.0618 0.79998,-1.61965 0.44039,-4.05572 -0.3673,-2.45077 -2.1106,-5.77312 -2.075,-3.95449 -3.83596,-5.52399 -1.76868,-1.58421 -3.33958,-1.79107 -1.55621,-0.21458 -3.04098,0.5645 z" />
        <path
           id="path1050"
           style="font-style:normal;font-variant:normal;font-weight:bold;font-stretch:normal;font-size:34px;font-family:'Times New Roman';-inkscape-font-specification:'Times New Roman, Bold';letter-spacing:2px;word-spacing:2px;fill:#006c35;fill-opacity:1"
           d="m 778.82428,323.31349 15.21645,9.31386 -3.31475,-9.0934 q -0.69365,-1.9029 -1.48405,-2.3746 -1.07846,-0.63175 -2.82961,0.0419 l -0.21037,-0.57711 6.98772,-2.54718 0.21037,0.57711 q -1.27885,0.66054 -1.64444,1.11186 -0.35567,0.43005 -0.3934,1.15061 -0.0278,0.69928 0.518,2.19664 l 6.41913,17.60969 -0.53032,0.19331 -20.72212,-12.39592 4.90105,13.44513 q 0.66522,1.82492 1.72501,2.16308 1.07538,0.33247 2.15162,-0.0598 l 0.49912,-0.18194 0.21037,0.57711 -7.50245,2.73481 -0.21037,-0.57711 q 1.74125,-0.65239 2.17169,-1.60445 0.43044,-0.95207 -0.18362,-2.63661 l -5.44119,-14.9269 -0.65701,-0.39662 q -0.97772,-0.59779 -1.5891,-0.67532 -0.61138,-0.0775 -1.5898,0.24378 l -0.21037,-0.57711 z" />
        <path
           id="path1052"
           style="font-style:normal;font-variant:normal;font-weight:bold;font-stretch:normal;font-size:34px;font-family:'Times New Roman';-inkscape-font-specification:'Times New Roman, Bold';letter-spacing:2px;word-spacing:2px;fill:#006c35;fill-opacity:1"
           d="m 817.89635,327.35927 3.00965,-15.76532 8.97799,-1.83733 0.12315,0.60178 -0.71563,0.14646 q -0.97587,0.19971 -1.49149,0.66109 -0.36002,0.31091 -0.49414,0.89757 -0.099,0.42696 0.23715,2.06967 l 2.97568,14.54043 q 0.34616,1.69151 0.61161,2.07777 0.26545,0.38626 0.88501,0.59839 0.61624,0.19585 1.54331,0.006 l 0.71564,-0.14646 0.12315,0.60179 -11.51524,2.35657 -0.12316,-0.60178 0.71564,-0.14645 q 0.97587,-0.19971 1.49149,-0.66109 0.36001,-0.31092 0.49081,-0.91384 0.099,-0.42696 -0.24048,-2.08594 l -3.34514,-16.34579 -4.34017,21.84997 -0.39035,0.0799 -12.67504,-18.21532 3.17872,15.53257 q 0.33285,1.62645 0.49073,1.98389 0.37786,0.76995 1.18374,1.14729 0.81882,0.35774 2.33142,0.0482 l 0.12315,0.60179 -7.54671,1.54442 -0.12315,-0.60178 0.2277,-0.0466 q 0.73523,-0.13352 1.31962,-0.5073 0.58105,-0.39004 0.8198,-0.87949 0.23875,-0.48944 0.26122,-1.29049 -0.004,-0.18556 -0.30698,-1.66563 l -2.85585,-13.95492 q -0.34283,-1.67524 -0.60496,-2.04523 -0.26545,-0.38627 -0.88168,-0.58212 -0.61956,-0.21212 -1.54664,-0.0224 l -0.69937,0.14313 -0.12315,-0.60179 9.01051,-1.84399 z" />
        <path
           id="path1054"
           style="font-style:normal;font-variant:normal;font-weight:bold;font-stretch:normal;font-size:34px;font-family:'Times New Roman';-inkscape-font-specification:'Times New Roman, Bold';letter-spacing:2px;word-spacing:2px;fill:#006c35;fill-opacity:1"
           d="m 845.07403,310.03948 0.53064,9.14868 0.44749,-0.0259 q 2.13801,-0.12401 3.02141,-1.52224 0.88341,-1.39822 0.99671,-4.03225 l 0.6298,-0.0365 0.68252,11.76733 -0.6298,0.0365 q -0.31039,-1.91101 -1.0279,-3.09998 -0.70094,-1.18992 -1.57023,-1.55524 -0.87026,-0.38189 -2.47791,-0.28864 l 0.36722,6.33116 q 0.10767,1.85625 0.28086,2.26194 0.18977,0.40473 0.63607,0.64492 0.4463,0.24018 1.40757,0.18443 l 1.34247,-0.0779 q 3.14901,-0.18265 4.95382,-1.75072 1.82138,-1.56904 2.47703,-4.60037 l 0.61323,-0.0356 -0.59668,7.20191 -19.42438,1.12665 -0.0356,-0.61323 0.74581,-0.0433 q 0.97785,-0.0567 1.55432,-0.43937 0.41746,-0.25703 0.6168,-0.83399 0.15924,-0.40834 0.0612,-2.09886 l -0.85748,-14.78375 q -0.0884,-1.52478 -0.1915,-1.86802 -0.19938,-0.57047 -0.66513,-0.85941 -0.65672,-0.42754 -1.75059,-0.36409 l -0.74581,0.0433 -0.0356,-0.61323 18.81116,-1.09108 0.38548,6.64606 -0.6298,0.0365 q -0.62195,-2.40846 -1.56188,-3.41823 -0.92336,-1.01073 -2.54327,-1.41565 -0.94543,-0.2445 -3.49778,-0.0965 z" />
        <path
           id="path1056"
           style="font-style:normal;font-variant:normal;font-weight:bold;font-stretch:normal;font-size:34px;font-family:'Times New Roman';-inkscape-font-specification:'Times New Roman, Bold';letter-spacing:2px;word-spacing:2px;fill:#006c35;fill-opacity:1"
           d="m 871.74022,308.5109 10.12828,14.68693 0.66016,-9.65617 q 0.13814,-2.02067 -0.39287,-2.77251 -0.72934,-1.015 -2.60321,-1.10983 l 0.0419,-0.61282 7.42018,0.50728 -0.0419,0.61283 q -1.43687,0.0848 -1.95414,0.34897 -0.49957,0.24873 -0.82644,0.892 -0.30916,0.62784 -0.41787,2.21787 l -1.27841,18.69952 -0.56314,-0.0385 -13.90977,-19.73787 -0.97607,14.27722 q -0.13249,1.93786 0.69892,2.67695 0.84797,0.74023 1.99081,0.81836 l 0.53002,0.0362 -0.0419,0.61282 -7.96676,-0.54465 0.0419,-0.61283 q 1.85618,0.11026 2.6359,-0.58525 0.77972,-0.69551 0.90202,-2.4843 l 1.08364,-15.8507 -0.43956,-0.6291 q -0.65105,-0.94308 -1.17838,-1.26202 -0.52733,-0.31894 -1.55196,-0.42227 l 0.0419,-0.61283 z" />
        <path
           id="path1058"
           style="font-style:normal;font-variant:normal;font-weight:bold;font-stretch:normal;font-size:34px;font-family:'Times New Roman';-inkscape-font-specification:'Times New Roman, Bold';letter-spacing:2px;word-spacing:2px;fill:#006c35;fill-opacity:1"
           d="m 913.64133,314.43052 -1.16868,5.97964 -0.58656,-0.11464 q -0.11696,-2.17115 -0.57726,-3.19147 -0.45711,-1.03662 -1.45997,-1.79084 -0.56182,-0.41428 -2.10969,-0.7168 l -1.64562,-0.32163 -3.33089,17.04279 q -0.33118,1.6945 -0.23475,2.15316 0.11273,0.46183 0.58672,0.89279 0.49347,0.41784 1.43848,0.60253 l 0.7332,0.1433 -0.11783,0.60285 -11.56823,-2.26093 0.11782,-0.60285 0.7332,0.1433 q 0.9613,0.18788 1.61473,-0.0396 0.46821,-0.14531 0.82088,-0.65152 0.25565,-0.35601 0.58046,-2.01792 l 3.33089,-17.04279 -1.59674,-0.31207 q -2.23218,-0.43626 -3.42706,0.31131 -1.67546,1.04272 -2.52786,3.41347 l -0.61915,-0.12101 1.16868,-5.97964 z" />
        <path
           id="path1060"
           style="font-style:normal;font-variant:normal;font-weight:bold;font-stretch:normal;font-size:34px;font-family:'Times New Roman';-inkscape-font-specification:'Times New Roman, Bold';letter-spacing:2px;word-spacing:2px;fill:#006c35;fill-opacity:1"
           d="m 937.69192,339.18419 -7.41951,-2.86137 -1.67143,1.70413 q -0.82797,0.85505 -1.08483,1.5211 -0.3405,0.88291 0.21073,1.57592 0.32264,0.40912 1.91675,1.16624 l -0.22102,0.57312 -6.98581,-2.69411 0.22102,-0.57312 q 1.19645,0.26569 2.21717,-0.21254 1.0267,-0.49372 3.02139,-2.48242 l 13.97593,-13.86253 0.2943,0.1135 0.93173,20.14553 q 0.14044,2.86551 0.59255,3.7694 0.34146,0.68328 1.27195,1.13109 l -0.22102,0.57312 -10.16118,-3.9187 0.22103,-0.57312 0.41822,0.16129 q 1.22367,0.47192 1.85076,0.3223 0.43635,-0.11641 0.61556,-0.5811 0.10752,-0.27881 0.12809,-0.60896 0.0228,-0.15135 -0.0167,-1.34093 z m -0.0846,-1.34933 -0.33922,-8.44032 -6.01152,5.99113 z" />
        <path
           id="path1062"
           style="font-style:normal;font-variant:normal;font-weight:bold;font-stretch:normal;font-size:34px;font-family:'Times New Roman';-inkscape-font-specification:'Times New Roman, Bold';letter-spacing:2px;word-spacing:2px;fill:#006c35;fill-opacity:1"
           d="m 965.13134,334.00232 3.11285,17.56697 4.61133,-8.50959 q 0.96497,-1.78074 0.79422,-2.68522 -0.24186,-1.22624 -1.90705,-2.09084 l 0.29266,-0.54006 6.5391,3.54352 -0.29266,0.54006 q -1.34228,-0.51967 -1.92254,-0.49422 -0.55775,0.0188 -1.12227,0.46814 -0.54202,0.44269 -1.30134,1.84393 l -8.92999,16.47912 -0.49628,-0.26893 -4.45473,-23.73226 -6.81812,12.58193 q -0.92542,1.70776 -0.47612,2.72541 0.4639,1.02557 1.47104,1.57134 l 0.46708,0.2531 -0.29266,0.54006 -7.02078,-3.80454 0.29266,-0.54006 q 1.64268,0.87129 2.64085,0.56248 0.99817,-0.3088 1.85241,-1.88519 l 7.56953,-13.96858 -0.13854,-0.75484 q -0.20052,-1.12831 -0.54773,-1.63746 -0.34721,-0.50916 -1.23636,-1.02875 l 0.29266,-0.54006 z" />
        <path
           id="path1064"
           style="font-style:normal;font-variant:normal;font-weight:bold;font-stretch:normal;font-size:34px;font-family:'Times New Roman';-inkscape-font-specification:'Times New Roman, Bold';letter-spacing:2px;word-spacing:2px;fill:#006c35;fill-opacity:1"
           d="m 970.65011,362.80999 0.36036,-0.49744 0.605,0.43827 q 0.79323,0.57463 1.38532,0.63455 0.61527,0.0562 1.1286,-0.22792 0.32553,-0.19468 1.34818,-1.60635 l 8.68758,-11.99251 q 1.01291,-1.39823 1.11824,-1.85492 0.10534,-0.45669 -0.16673,-1.04328 -0.24888,-0.59029 -1.01521,-1.14544 l -0.60501,-0.43828 0.36036,-0.49744 8.16082,5.91184 q 3.26702,2.36669 4.61401,4.69546 1.64456,2.85185 1.29763,5.96252 -0.33349,3.12041 -2.34955,5.90342 -1.39274,1.92257 -3.18966,3.10134 -1.78718,1.16533 -3.53805,1.51647 -1.74113,0.33769 -3.49929,0.048 -1.73499,-0.29336 -3.84356,-1.28784 -0.93699,-0.43277 -2.69822,-1.70864 z m 19.40757,-12.16024 -10.30434,14.2243 q -0.81811,1.12934 -0.8956,1.4627 -0.0775,0.33336 0.0806,0.65286 0.21691,0.46463 0.90258,0.96134 2.24523,1.62649 4.53865,0.95088 3.11321,-0.90172 6.26879,-5.25774 2.542,-3.50902 2.9589,-6.405 0.31432,-2.27329 -0.62848,-3.85828 -0.66609,-1.11802 -2.92106,-2.73106 z" />
        <path
           id="path1066"
           style="font-style:normal;font-variant:normal;font-weight:bold;font-stretch:normal;font-size:34px;font-family:'Times New Roman';-inkscape-font-specification:'Times New Roman, Bold';letter-spacing:2px;word-spacing:2px;fill:#006c35;fill-opacity:1"
           d="m 1023.3242,377.40947 -2.6185,17.64742 7.0718,-6.60807 q 1.4799,-1.38282 1.6048,-2.29477 0.1595,-1.23965 -1.1456,-2.58767 l 0.4488,-0.41938 5.0779,5.43427 -0.4488,0.41938 q -1.1082,-0.91851 -1.6666,-1.07839 -0.5349,-0.15908 -1.2128,0.0881 -0.6544,0.24797 -1.8189,1.33609 l -13.6949,12.79677 -0.3853,-0.41242 3.301,-23.92004 -10.4561,9.77043 q -1.4193,1.32615 -1.3159,2.43376 0.1148,1.11974 0.8969,1.95672 l 0.3627,0.38816 -0.4488,0.41938 -5.452,-5.83456 0.4488,-0.41938 q 1.2816,1.34723 2.3262,1.3709 1.0446,0.0237 2.3546,-1.20048 l 11.6085,-10.84722 0.108,-0.75981 q 0.1676,-1.13366 -2e-4,-1.72665 -0.1678,-0.59298 -0.8463,-1.36771 l 0.4488,-0.41938 z" />
        <path
           id="path1068"
           style="font-style:normal;font-variant:normal;font-weight:bold;font-stretch:normal;font-size:34px;font-family:'Times New Roman';-inkscape-font-specification:'Times New Roman, Bold';letter-spacing:2px;word-spacing:2px;fill:#006c35;fill-opacity:1"
           d="m 1032.5911,413.84931 -4.6689,-6.43729 -2.3295,0.52059 q -1.1599,0.26701 -1.7378,0.68613 -0.766,0.55558 -0.6805,1.43695 0.048,0.5188 0.9738,2.02131 l -0.4972,0.36064 -4.3959,-6.06099 0.4972,-0.36064 q 0.8594,0.87383 1.976,1.02786 1.1301,0.14428 3.8857,-0.43922 l 19.2683,-4.02836 0.1852,0.25534 -10.1779,17.41038 q -1.4411,2.48076 -1.5535,3.48515 -0.085,0.75908 0.4519,1.64104 l -0.4972,0.36064 -6.3941,-8.816 0.4973,-0.36064 0.2632,0.36285 q 0.77,1.06168 1.3775,1.2773 0.4295,0.1397 0.8327,-0.15271 0.2419,-0.17544 0.4387,-0.44127 0.1015,-0.1146 0.7155,-1.1342 z m 0.663,-1.1782 4.3072,-7.26655 -8.3034,1.75655 z" />
        <path
           id="path1070"
           style="font-style:normal;font-variant:normal;font-weight:bold;font-stretch:normal;font-size:34px;font-family:'Times New Roman';-inkscape-font-specification:'Times New Roman, Bold';letter-spacing:2px;word-spacing:2px;fill:#006c35;fill-opacity:1"
           d="m 1063.2554,433.47726 -5.3215,2.96705 -0.291,-0.522 q 1.5828,-1.49075 2.065,-2.5009 0.4967,-1.01824 0.4254,-2.27103 -0.046,-0.69653 -0.8142,-2.07403 l -0.8166,-1.46451 -15.167,8.4565 q -1.508,0.8408 -1.7961,1.2105 -0.28,0.3842 -0.3032,1.02439 -6e-4,0.64661 0.4683,1.48761 l 0.3638,0.6525 -0.5365,0.29913 -5.7401,-10.29502 0.5365,-0.29914 0.3638,0.65251 q 0.477,0.8555 1.0726,1.20772 0.4132,0.26382 1.0275,0.20644 0.4369,-0.0345 1.9159,-0.85915 l 15.167,-8.4565 -0.7923,-1.421 q -1.1076,-1.98651 -2.4498,-2.4166 -1.8779,-0.60665 -4.2388,0.27254 l -0.3072,-0.551 5.3215,-2.96705 z" />
        <path
           id="path1072"
           style="font-style:normal;font-variant:normal;font-weight:bold;font-stretch:normal;font-size:34px;font-family:'Times New Roman';-inkscape-font-specification:'Times New Roman, Bold';letter-spacing:2px;word-spacing:2px;fill:#006c35;fill-opacity:1"
           d="m 1066.3065,439.65356 4.3534,10.77489 -0.5696,0.23011 -0.2176,-0.53875 q -0.4913,-1.21602 -0.9396,-1.57208 -0.4266,-0.34688 -0.9539,-0.36663 -0.521,-0.004 -2.3065,0.71705 l -10.2208,4.12945 q -2.8015,1.13187 -3.5417,1.91439 -0.7341,0.79792 -0.9426,2.01021 -0.2085,1.21228 0.3885,2.68998 0.6841,1.6932 1.9172,2.5737 1.2548,0.88968 2.8303,0.93354 1.5817,0.0593 4.9065,-1.28405 l 8.5122,-3.43914 q 1.4007,-0.56593 1.8828,-1.10094 0.4822,-0.535 0.5327,-1.07468 0.074,-0.83571 -0.4358,-2.09791 l 0.5696,-0.2301 2.9167,7.21918 -0.5695,0.2301 -0.1742,-0.431 q -0.3544,-0.87738 -0.9448,-1.31926 -0.5903,-0.44189 -1.4041,-0.41749 -0.5735,-0.001 -1.851,0.51509 l -7.9273,3.20281 q -3.6788,1.48635 -5.5095,1.65301 -1.8244,0.18204 -3.9531,-1.14237 -2.1286,-1.32442 -3.4409,-4.57228 -1.0945,-2.70911 -0.9681,-4.47911 0.1704,-2.41446 1.3739,-3.86757 1.2034,-1.45311 3.8048,-2.50413 l 10.2208,-4.12945 q 1.8009,-0.72763 2.151,-1.10187 0.3656,-0.38046 0.4283,-0.97875 0.063,-0.59829 -0.4876,-1.91584 z" />
        <path
           id="path1074"
           style="font-style:normal;font-variant:normal;font-weight:bold;font-stretch:normal;font-size:34px;font-family:'Times New Roman';-inkscape-font-specification:'Times New Roman, Bold';letter-spacing:2px;word-spacing:2px;fill:#006c35;fill-opacity:1"
           d="m 1067.1833,478.21341 -6.105,1.58957 q -1.7673,0.46013 -2.1788,0.7903 -0.3913,0.34205 -0.5222,0.9594 -0.1309,0.61736 0.2581,2.11149 l -0.5944,0.15477 -2.903,-11.14975 0.5944,-0.15477 q 0.3932,1.51019 0.8044,1.96926 0.4314,0.47094 0.9356,0.56267 0.5084,0.1078 2.2757,-0.35234 l 14.138,-3.6811 q 1.7672,-0.46013 2.1585,-0.80218 0.4115,-0.33017 0.5424,-0.94752 0.1309,-0.61735 -0.2581,-2.11149 l 0.5944,-0.15477 2.6354,10.12153 q 1.029,3.95222 0.9596,5.92596 -0.069,1.97374 -1.2462,3.51533 -1.1608,1.5374 -3.1369,2.05192 -2.4099,0.62746 -4.4362,-0.69772 -1.2847,-0.8492 -2.3014,-2.7117 l -6.0106,7.15752 q -1.1621,1.40051 -1.4027,1.92632 -0.3265,0.78838 -0.1488,1.66849 l -0.5944,0.15477 -1.7862,-6.86015 8.1007,-9.60594 z m 10.6839,-2.78174 -9.5432,2.48474 0.2384,0.91576 q 0.5815,2.23316 1.2718,3.23714 0.7063,0.99978 1.9298,1.35027 1.2437,0.36237 2.9628,-0.0852 2.4902,-0.64838 3.3737,-2.13074 0.8877,-1.46629 0.2143,-4.0529 z" />
        <path
           id="path1076"
           style="font-style:normal;font-variant:normal;font-weight:bold;font-stretch:normal;font-size:34px;font-family:'Times New Roman';-inkscape-font-specification:'Times New Roman, Bold';letter-spacing:2px;word-spacing:2px;fill:#006c35;fill-opacity:1"
           d="m 1069.6763,511.06828 -0.9908,-7.89018 -2.2923,-0.66588 q -1.145,-0.3247 -1.8533,-0.23576 -0.939,0.1179 -1.2886,0.93147 -0.2077,0.47785 -0.1202,2.24045 l -0.6095,0.0765 -0.9328,-7.42896 0.6094,-0.0765 q 0.3322,1.17972 1.2366,1.85255 0.9208,0.67077 3.6167,1.48674 l 18.8262,5.75093 0.039,0.31297 -17.3056,10.35505 q -2.4579,1.47987 -3.0401,2.30593 -0.4403,0.62417 -0.3945,1.65579 l -0.6094,0.0765 -1.357,-10.80576 0.6095,-0.0765 0.056,0.44475 q 0.1634,1.3013 0.592,1.78291 0.309,0.32929 0.8032,0.26724 0.2965,-0.0372 0.597,-0.17537 0.1442,-0.0516 1.1734,-0.6493 z m 1.1486,-0.71312 7.2747,-4.29337 -8.1228,-2.46023 z" />
        <path
           id="path1078"
           style="font-style:normal;font-variant:normal;font-weight:bold;font-stretch:normal;font-size:34px;font-family:'Times New Roman';-inkscape-font-specification:'Times New Roman, Bold';letter-spacing:2px;word-spacing:2px;fill:#006c35;fill-opacity:1"
           d="m 1072.6154,545.67826 -7.9053,-0.81841 -0.072,-19.98815 0.6143,-0.002 0,0.74707 q 0,0.97948 0.3543,1.57589 0.234,0.43081 0.7993,0.66121 0.399,0.18119 2.0924,0.17513 l 14.8085,-0.053 q 1.7265,-0.006 2.1575,-0.19034 0.431,-0.18416 0.7444,-0.74974 0.3301,-0.54903 0.3267,-1.49532 l -0,-0.74706 0.6143,-0.002 0.043,12.00286 -0.6142,0.002 -0,-0.97948 q -0,-0.97949 -0.3543,-1.5759 -0.234,-0.4308 -0.7993,-0.6778 -0.3991,-0.1812 -2.0925,-0.17514 l -14.3436,0.0513 q -1.7266,0.006 -2.2073,0.20712 -0.4641,0.20088 -0.6945,0.78276 -0.1479,0.41557 -0.1422,2.00931 l 0.01,1.87597 q 0.01,1.79295 0.6416,2.986 0.6351,1.19305 1.9995,2.05146 1.3645,0.87501 4.0235,1.64577 z" />
        <path
           id="path1080"
           style="font-style:normal;font-variant:normal;font-weight:bold;font-stretch:normal;font-size:34px;font-family:'Times New Roman';-inkscape-font-specification:'Times New Roman, Bold';letter-spacing:2px;word-spacing:2px;fill:#006c35;fill-opacity:1"
           d="m 1072.0815,570.31332 -6.2071,-1.12732 q -1.7967,-0.32633 -2.309,-0.20002 -0.4989,0.14562 -0.8774,0.65056 -0.3786,0.50493 -0.6545,2.02402 l -0.6044,-0.10976 2.0589,-11.33604 0.6043,0.10977 q -0.2788,1.53542 -0.099,2.12489 0.1931,0.60877 0.6119,0.90418 0.4158,0.31175 2.2126,0.63808 l 14.3743,2.61063 q 1.7967,0.32633 2.2956,0.18071 0.5123,-0.12631 0.8908,-0.63125 0.3786,-0.50493 0.6545,-2.02403 l 0.6044,0.10977 -1.869,10.29064 q -0.7298,4.01825 -1.6234,5.7795 -0.8935,1.76125 -2.6099,2.66439 -1.7,0.90611 -3.7091,0.54122 -2.4502,-0.445 -3.7306,-2.49984 -0.808,-1.311 -0.9465,-3.42842 l -8.4646,3.96331 q -1.6436,0.78137 -2.0831,1.15713 -0.628,0.57775 -0.8372,1.4509 l -0.6043,-0.10976 1.2667,-6.97477 11.3911,-5.30474 z m 10.8623,1.9728 -9.7026,-1.76217 -0.1691,0.93106 q -0.4123,2.27047 -0.2087,3.47171 0.22,1.2042 1.1824,2.03704 0.9757,0.85213 2.7235,1.16956 2.5318,0.45983 3.9571,-0.51305 1.4224,-0.95654 1.9,-3.58637 z" />
        <path
           id="path1082"
           style="font-style:normal;font-variant:normal;font-weight:bold;font-stretch:normal;font-size:34px;font-family:'Times New Roman';-inkscape-font-specification:'Times New Roman, Bold';letter-spacing:2px;word-spacing:2px;fill:#006c35;fill-opacity:1"
           d="m 1076.1174,600.9317 -8.7411,-2.75203 -0.1346,0.42755 q -0.6431,2.04275 0.3504,3.36503 0.9935,1.32228 3.4157,2.36336 l -0.1895,0.60174 -11.243,-3.53975 0.1894,-0.60174 q 1.8967,0.3883 3.263,0.13965 1.3613,-0.2328 2.0114,-0.91576 0.666,-0.67798 1.1496,-2.214 l -6.0491,-1.90449 q -1.7735,-0.55838 -2.2143,-0.5405 -0.4457,0.0337 -0.8287,0.36566 -0.383,0.33195 -0.6722,1.25039 l -0.4038,1.28266 q -0.9473,3.0087 -0.1221,5.25265 0.8201,2.25979 3.4212,3.94896 l -0.1844,0.5859 -6.5209,-3.11473 5.8431,-18.55894 0.5859,0.18446 -0.2244,0.71259 q -0.2941,0.93428 -0.1411,1.60905 0.092,0.48151 0.5607,0.87272 0.3252,0.29384 1.9404,0.80237 l 14.1251,4.44712 q 1.4568,0.45868 1.8143,0.4842 0.6041,0.0161 1.0395,-0.31669 0.6329,-0.46214 0.9619,-1.50727 l 0.2244,-0.71259 0.5859,0.18447 -5.6586,17.97304 -6.35,-1.99922 0.1895,-0.60174 q 2.4723,0.27366 3.75,-0.24653 1.2727,-0.50436 2.2264,-1.87498 0.5642,-0.79704 1.332,-3.23567 z" />
        <path
           id="path1084"
           style="font-style:normal;font-variant:normal;font-weight:bold;font-stretch:normal;font-size:34px;font-family:'Times New Roman';-inkscape-font-specification:'Times New Roman, Bold';letter-spacing:2px;word-spacing:2px;fill:#006c35;fill-opacity:1"
           d="m 1065.6614,633.13972 -6.9404,-2.85873 0.2744,-0.62288 q 2.7768,0.69748 5.1047,-0.34489 2.3365,-1.02049 3.2201,-3.02584 0.6829,-1.54958 0.249,-2.82929 -0.4254,-1.25783 -1.5041,-1.73313 -0.6836,-0.30124 -1.3559,-0.21651 -0.9082,0.12593 -2.0355,0.79028 -0.8159,0.49311 -3.2301,2.51343 -3.3707,2.83246 -5.5063,3.39718 -2.1289,0.54954 -4.1647,-0.34751 -2.5826,-1.13804 -3.5609,-3.98198 -0.9697,-2.82206 0.3959,-5.92123 0.4284,-0.97229 1.0075,-1.75121 0.5791,-0.77892 1.7017,-1.84444 0.6252,-0.59533 0.8327,-1.06628 0.1741,-0.39499 0.064,-0.96945 -0.1097,-0.57445 -0.6121,-1.12238 l 0.2477,-0.5621 7.7783,3.42751 -0.2477,0.5621 q -3.576,-0.77753 -6.1447,0.35832 -2.5602,1.15773 -3.5309,3.36057 -0.7498,1.70151 -0.2649,3.11254 0.4782,1.42622 1.7088,1.96846 0.7292,0.32133 1.5869,0.22758 0.851,-0.0786 1.8068,-0.60076 0.971,-0.51552 2.8421,-2.08573 2.6209,-2.20134 4.1355,-3.00345 1.5145,-0.80212 3.0092,-0.94171 1.488,-0.12441 2.9313,0.51156 2.4611,1.08448 3.3963,3.65549 0.9353,2.57101 -0.2764,5.32076 -0.4418,1.00268 -1.0999,1.83747 -0.497,0.6337 -1.4468,1.43065 -0.9414,0.81883 -1.1221,1.22902 -0.1741,0.39499 -0.031,0.72998 0.1426,0.33499 0.9823,0.94084 z" />
        <path
           id="path1086"
           style="font-style:normal;font-variant:normal;font-weight:bold;font-stretch:normal;font-size:34px;font-family:'Times New Roman';-inkscape-font-specification:'Times New Roman, Bold';letter-spacing:2px;word-spacing:2px;fill:#006c35;fill-opacity:1"
           d="m 1055.6177,651.40196 q -2.5713,4.72871 -7.1517,5.91204 -4.589,1.19762 -8.9019,-1.35884 -3.6846,-2.18398 -5.2055,-5.99961 -2.0201,-5.05717 1.0696,-10.26983 3.0983,-5.22694 8.333,-5.98386 4.1366,-0.59728 7.9783,1.67982 4.3129,2.55646 5.4481,7.1856 1.141,4.65188 -1.5699,8.83468 z m -1.0155,-0.37039 q 1.5745,-2.65632 -0.3179,-5.64996 -1.5591,-2.44877 -5.7292,-4.92058 -4.9556,-2.93738 -8.3591,-2.60027 -2.3761,0.23196 -3.6713,2.417 -0.8719,1.47097 -0.7419,2.87963 0.1691,1.79851 1.7537,3.6834 1.5988,1.89336 4.8264,3.80647 3.8417,2.2771 6.1643,2.6889 2.337,0.42025 3.7827,-0.22811 1.4373,-0.63408 2.2923,-2.07648 z" />
        <path
           id="path1088"
           style="font-style:normal;font-variant:normal;font-weight:bold;font-stretch:normal;font-size:34px;font-family:'Times New Roman';-inkscape-font-specification:'Times New Roman, Bold';letter-spacing:2px;word-spacing:2px;fill:#006c35;fill-opacity:1"
           d="m 1045.1427,667.45466 -7.2189,9.10699 -0.4813,-0.38157 0.3609,-0.45535 q 0.8147,-1.02779 0.9029,-1.5934 0.091,-0.5423 -0.1523,-1.0105 -0.2535,-0.45518 -1.7627,-1.65146 l -8.6386,-6.84765 q -2.3678,-1.87692 -3.4139,-2.1341 -1.0563,-0.24417 -2.2134,0.17326 -1.1571,0.41744 -2.1471,1.66639 -1.1344,1.4311 -1.291,2.93819 -0.1539,1.53042 0.5861,2.92201 0.7297,1.40459 3.5398,3.63214 l 7.1945,5.70294 q 1.1839,0.93846 1.8873,1.09346 0.7033,0.15501 1.1975,-0.0676 0.7633,-0.34826 1.609,-1.41507 l 0.4813,0.38157 -4.8366,6.10168 -0.4814,-0.38157 0.2888,-0.36428 q 0.5878,-0.74157 0.6804,-1.47314 0.093,-0.73158 -0.3304,-1.42713 -0.2823,-0.49914 -1.3621,-1.35509 l -6.7002,-5.31106 q -3.1094,-2.46474 -4.1584,-3.97421 -1.0594,-1.49646 -0.9591,-4.00151 0.1003,-2.50505 2.2762,-5.25015 1.8151,-2.28976 3.4166,-3.05402 2.1836,-1.04429 4.0415,-0.71556 1.8578,0.32874 4.0565,2.07159 l 8.6387,6.84765 q 1.5221,1.20659 2.0205,1.32621 0.5113,0.12994 1.0625,-0.11106 0.5512,-0.24101 1.4251,-1.37018 z" />
        <path
           id="path1090"
           style="font-style:normal;font-variant:normal;font-weight:bold;font-stretch:normal;font-size:34px;font-family:'Times New Roman';-inkscape-font-specification:'Times New Roman, Bold';letter-spacing:2px;word-spacing:2px;fill:#006c35;fill-opacity:1"
           d="m 1012.0225,687.26067 -4.3903,-4.5303 q -1.2709,-1.3114 -1.761,-1.50694 -0.4904,-0.17207 -1.0921,0.0181 -0.6018,0.19014 -1.7105,1.26461 l -0.4275,-0.44111 8.2738,-8.01807 0.4275,0.44111 q -1.1207,1.08602 -1.3177,1.66995 -0.1974,0.60741 -0.029,1.09142 0.1566,0.49556 1.4275,1.80696 l 10.167,10.49122 q 1.2709,1.31141 1.7613,1.48347 0.49,0.19554 1.0918,0.005 0.6017,-0.19014 1.7105,-1.26461 l 0.4274,0.44111 -7.5107,7.27865 q -2.9328,2.84215 -4.6847,3.75389 -1.7519,0.91175 -3.6732,0.64679 -1.9097,-0.25304 -3.3308,-1.71943 -1.733,-1.78828 -1.5777,-4.20439 0.1063,-1.53634 1.2264,-3.33854 l -9.18949,-1.70571 q -1.79126,-0.32162 -2.36732,-0.27196 -0.84695,0.10411 -1.52539,0.69223 l -0.42748,-0.44111 5.09063,-4.93331 12.34985,2.31885 z m 7.683,7.92803 -6.8628,-7.08158 -0.6795,0.65855 q -1.6571,1.60592 -2.1909,2.70115 -0.5222,1.10716 -0.2247,2.34458 0.2973,1.2609 1.5335,2.53654 1.7908,1.84789 3.516,1.8867 1.7133,0.0504 3.6327,-1.80973 z" />
        <path
           id="path1092"
           style="font-style:normal;font-variant:normal;font-weight:bold;font-stretch:normal;font-size:34px;font-family:'Times New Roman';-inkscape-font-specification:'Times New Roman, Bold';letter-spacing:2px;word-spacing:2px;fill:#006c35;fill-opacity:1"
           d="m 987.70272,724.04202 -4.65616,-6.26122 0.51955,-0.38636 q 2.40899,2.0153 4.97846,2.13203 2.56946,0.11672 4.59437,-1.3891 1.69186,-1.25815 2.38077,-3.28075 0.68892,-2.0226 0.17269,-4.08 -0.65665,-2.6357 -2.48939,-5.10023 -1.80302,-2.42455 -3.90183,-3.9671 -2.0889,-1.52923 -4.15725,-1.58415 -2.05844,-0.0416 -4.13663,1.50386 -1.70519,1.26806 -2.56251,3.06419 -0.87065,1.80603 -1.0854,4.8001 l -1.15908,-1.55864 q 0.33977,-2.71465 1.45671,-4.66246 1.11351,-1.92458 3.3116,-3.55919 2.89082,-2.14976 6.00408,-2.665 3.09993,-0.50534 5.94033,0.75469 2.82707,1.26993 4.64991,3.72113 1.9219,2.58442 2.30018,5.90298 0.36498,3.32847 -0.97534,6.31131 -1.35362,2.99275 -3.93804,4.91465 -1.905,1.41666 -4.63738,2.16588 -1.58224,0.43184 -1.91528,0.67951 -0.4263,0.31701 -0.50484,0.85127 -0.082,0.55748 0.33003,1.30624 z" />
        <path
           id="path1094"
           style="font-style:normal;font-variant:normal;font-weight:bold;font-stretch:normal;font-size:34px;font-family:'Times New Roman';-inkscape-font-specification:'Times New Roman, Bold';letter-spacing:2px;word-spacing:2px;fill:#006c35;fill-opacity:1"
           d="m 973.09627,730.76999 -4.50854,-7.97829 -0.39025,0.22053 q -1.86449,1.05362 -2.04121,2.69807 -0.17671,1.64445 0.88252,4.05878 l -0.54923,0.31037 -5.79903,-10.26193 0.54923,-0.31037 q 1.12089,1.57858 2.28898,2.3296 1.15363,0.75918 2.09495,0.70397 0.94948,-0.0408 2.35146,-0.83303 l -3.12004,-5.5212 q -0.91478,-1.61879 -1.24905,-1.90661 -0.34872,-0.27966 -0.85519,-0.29856 -0.50648,-0.0189 -1.34477,0.45483 l -1.17073,0.66158 q -2.74615,1.55185 -3.67509,3.75486 -0.94339,2.21119 -0.19588,5.22118 l -0.53478,0.30221 -2.6386,-6.72765 16.93941,-9.57249 0.30221,0.53478 -0.65041,0.36754 q -0.85275,0.48189 -1.20155,1.07945 -0.26144,0.41471 -0.18609,1.02047 0.037,0.43673 0.87013,1.91098 l 7.28555,12.89245 q 0.75142,1.32971 0.99521,1.5924 0.4304,0.42419 0.97583,0.47828 0.77792,0.0943 1.73185,-0.44474 l 0.6504,-0.36755 0.3022,0.53478 -16.40463,9.27028 -3.27523,-5.79582 0.54923,-0.31037 q 1.6198,1.88779 2.90856,2.37992 1.27431,0.5003 2.90686,0.14981 0.95641,-0.19722 3.18224,-1.45504 z" />
        <path
           id="path1096"
           style="font-style:normal;font-variant:normal;font-weight:bold;font-stretch:normal;font-size:34px;font-family:'Times New Roman';-inkscape-font-specification:'Times New Roman, Bold';letter-spacing:2px;word-spacing:2px;fill:#006c35;fill-opacity:1"
           d="m 943.44335,747.16216 -3.11371,-6.82985 0.62602,-0.2672 q 1.55072,2.40671 3.96264,3.23645 2.40316,0.85152 4.41866,-0.009 1.55742,-0.66475 2.11511,-1.89557 0.54894,-1.20903 0.0862,-2.29312 -0.29327,-0.6871 -0.84202,-1.08465 -0.7491,-0.52864 -2.0261,-0.81391 -0.9327,-0.19757 -4.07585,-0.37223 -4.3965,-0.23538 -6.34161,-1.28242 -1.92983,-1.05355 -2.80313,-3.09958 -1.10791,-2.59571 0.12124,-5.34057 1.22039,-2.72306 4.33525,-4.05256 0.9772,-0.4171 1.93225,-0.59008 0.95505,-0.17299 2.50279,-0.18378 0.86325,-0.007 1.33659,-0.20948 0.39699,-0.16945 0.70944,-0.66382 0.31246,-0.49438 0.32009,-1.23771 l 0.56495,-0.24113 3.33678,7.81766 -0.56494,0.24113 q -2.07954,-3.01132 -4.73111,-3.93733 -2.66031,-0.90422 -4.8743,0.0408 -1.71011,0.72992 -2.32031,2.09146 -0.62547,1.36805 -0.0976,2.60483 0.31282,0.7329 1.00309,1.25056 0.67499,0.52417 1.72966,0.79603 1.06118,0.28713 3.50029,0.41934 3.4178,0.1838 5.07168,0.63311 1.65388,0.44932 2.84056,1.36881 1.17142,0.926 1.79055,2.37655 1.05578,2.47355 -0.0183,4.98975 -1.07404,2.51619 -3.83771,3.6958 -1.00774,0.43013 -2.05869,0.58989 -0.79584,0.12308 -2.03392,0.0559 -1.24683,-0.0454 -1.65909,0.13052 -0.397,0.16945 -0.52175,0.51151 -0.12476,0.34206 0.0743,1.35818 z" />
      </g>
      <path
         sodipodi:end="1.4642509"
         sodipodi:start="2.0622817"
         d="M 762.99812,715.95176 A 204.75247,204.75249 0 0 1 666.73224,466.77131 204.75247,204.75249 0 0 1 898.79401,334.46356 204.75247,204.75249 0 0 1 1064.1917,544.22917 204.75247,204.75249 0 0 1 881.40236,739.02666 L 859.62817,535.43524 Z"
         sodipodi:ry="204.75249"
         sodipodi:rx="204.75247"
         sodipodi:cy="535.43524"
         sodipodi:cx="859.62817"
         id="path6617-7"
         style="color:#000000;display:inline;overflow:visible;visibility:visible;opacity:0.98000004;fill:none;stroke:none;stroke-width:2.87127876;marker:none;enable-background:accumulate"
         sodipodi:type="arc" />
      <ellipse
         ry="192.7052"
         rx="192.70621"
         cy="535.17889"
         cx="859.65509"
         id="path6617"
         style="color:#000000;display:inline;overflow:visible;visibility:visible;opacity:0.98000004;fill:#ffffff;fill-opacity:1;fill-rule:nonzero;stroke:none;stroke-width:2.70234489;marker:none;enable-background:accumulate" />
      <g
         id="g1012">
        <path
           style="display:inline;fill:#0038a8;fill-opacity:1;fill-rule:evenodd;stroke:none;stroke-width:0.95715767"
           d="m 859.6551,342.47368 c -32.52644,0 -63.17471,7.95039 -90.05099,21.98273 l 13.91423,8.64455 v -12.03108 c 5.94108,-0.97099 12.06103,-1.48532 18.28125,-1.48532 6.22018,0 12.31003,0.51433 18.25114,1.48532 v 12.03108 l 14.12505,-8.76338 c 9.01021,2.70854 17.51321,6.50731 25.38897,11.25872 l -39.51402,24.59688 v 18.80414 l 53.57883,-33.33056 c 6.02266,5.05808 11.48328,10.72915 16.29351,16.93264 l -69.87234,43.49014 v 18.80414 l 78.72685,-48.95612 c 3.7897,6.72187 6.88684,13.86279 9.1858,21.35889 l -87.91265,54.68945 v 18.80413 l 91.55685,-56.94712 c 0.69517,4.94424 1.08423,9.98671 1.08423,15.12054 0,3.949 -0.21876,7.83387 -0.63247,11.67461 l -92.00861,57.24419 v 15.38791 h 5.48136 l 81.88918,-50.91674 c -3.12332,9.62034 -7.5593,18.65795 -13.10106,26.91398 h 24.66613 133.38986 C 1050.5725,425.80467 964.97966,342.47368 859.6551,342.47368 Z m -112.00656,35.3803 c -4.65504,3.28384 -9.12897,6.78691 -13.46247,10.45665 l 49.33227,30.68669 v -18.80414 z m -30.59926,26.85457 c -3.6505,3.95814 -7.14534,8.07573 -10.45073,12.32815 l 76.91979,47.85698 v -18.80414 z m -17.58855,22.13126 c -20.56037,30.23809 -32.5569,66.61039 -32.5569,105.7547 0,6.99089 -0.0478,13.7723 0.69776,20.56768 l 63.57274,0.10797 c -16.14583,-13.17747 -28.45646,-30.77263 -34.9964,-50.91674 l 81.85905,50.91674 h 5.48136 v -15.38791 l -91.97849,-57.24419 c -0.41372,-3.84075 -0.63245,-7.72561 -0.63246,-11.67461 1e-5,-5.13382 0.35894,-10.1763 1.05411,-15.12054 l 91.55684,56.94712 V 491.9859 l -87.88252,-54.68945 c 1.09518,-3.57101 2.38116,-7.04955 3.82491,-10.45664 z m 245.54703,121.5585 c -17.48596,0.0179 -37.86083,0.053 -62.10204,0.14853 l -38.77399,20.37858 -174.52708,0.27469 c 1.88813,11.4817 4.42084,21.24556 8.36289,31.96722 l 166.14698,0.16778 38.7912,-18.09119 h 36.08062 l 127.84506,-3e-5 c 2.0153,-11.1798 5.1671,-22.7501 5.1671,-34.66779 -27.6961,0 -54.53285,-0.23153 -106.99074,-0.17776 z m -62.10204,54.12503 -38.7912,20.73505 -156.66795,-0.1731 c 2.8125,5.36948 5.3859,10.13982 8.50024,14.93934 3.95262,6.09138 6.88852,11.39059 12.30156,17.28721 l 135.86615,-0.0299 38.7912,-18.09119 h 36.08062 l 104.95616,-3e-5 c 1.7272,-2.40994 1.9034,-3.11929 3.9521,-6.63604 1.7049,-2.92665 3.7176,-6.85169 5.2809,-9.97651 1.5809,-3.15983 3.4649,-7.13507 4.8068,-10.594 1.0564,-2.72321 1.5999,-4.9067 2.9243,-7.46079 z m 0,53.94678 -38.7912,20.76456 H 728.524 c 13.90225,13.11897 32.38755,24.12186 49.67806,32.82419 l 65.91246,-0.0281 38.7912,-18.06148 h 36.08062 l 53.37659,2e-5 c 12.79421,-10.24896 28.30517,-22.17114 37.82227,-35.49915 z m 0,54.77857 -30.76117,16.44821 c 1.0169,-0.54375 20.29384,-0.80926 26.94509,-0.80926 32.81692,-6.7703 35.94601,-7.49585 59.44183,-15.63895 z"
           id="path3350"
           inkscape:connector-curvature="0"
           sodipodi:nodetypes="scccscccccccccccccccsccccccccscccccccccccscccccccscccccccccccccccsccccscccccssscccccccccccccsccc" />
        <path
           style="display:inline;fill:#006c35;fill-opacity:1;fill-rule:evenodd;stroke:none;stroke-width:0.95715767"
           d="m 944.98649,548.39831 c -17.4845,0.0179 -37.82758,0.0822 -62.06677,0.17779 l -38.78798,20.34958 -174.52709,0.27443 c 1.88817,11.48288 4.4204,21.24472 8.36267,31.96722 l 166.16434,0.19772 38.78806,-18.09145 h 36.07763 l 127.83405,-0.0297 c 2.2822,-7.915 5.1671,-22.73805 5.1671,-34.66784 -27.6938,0 -54.55846,-0.23155 -107.01201,-0.17774 z m -62.09689,54.15473 -38.75786,20.70538 -156.68516,-0.17313 c 4.26638,8.58143 6.74728,11.98774 9.5893,16.64578 2.65569,4.35264 5.41671,8.97727 11.14264,15.58077 h 135.95322 l 38.78798,-18.0915 h 36.07763 l 104.94515,-0.0297 c 7.114,-11.2929 13.3961,-22.48033 16.9641,-34.66734 z m 0,53.94679 -38.75786,20.73505 -115.36352,-2e-4 c 14.45545,15.2212 32.91385,25.33033 49.43385,32.82419 l 65.92967,9.5e-4 38.78798,-18.09074 h 36.07763 53.36558 c 15.05836,-10.07838 28.31857,-22.18896 37.82227,-35.49915 z m 0,54.74886 -30.74493,16.44821 c 34.01716,1.52867 63.76916,-5.99716 86.3868,-16.44821 z"
           id="path3350-5-8"
           inkscape:connector-curvature="0"
           sodipodi:nodetypes="ccccccccccsccccsccccccccccccccccccccc" />
      </g>
      <ellipse
         ry="192.70827"
         rx="192.70813"
         cy="535.18195"
         cx="859.65509"
         id="path6617-5"
         style="color:#000000;display:inline;overflow:visible;visibility:visible;opacity:0.98000004;fill:none;stroke:none;stroke-width:2.7023797;stroke-opacity:1;marker:none;enable-background:accumulate" />
      <path
         sodipodi:open="true"
         sodipodi:end="5.0587953"
         sodipodi:start="4.4775453"
         transform="scale(1,-1)"
         d="m 805.53672,-761.37096 a 232.57614,232.57611 0 0 1 133.08257,7.43123"
         sodipodi:ry="232.57611"
         sodipodi:rx="232.57614"
         sodipodi:cy="-535.17889"
         sodipodi:cx="859.65509"
         id="path3760-4"
         style="color:#000000;display:inline;overflow:visible;visibility:visible;fill:none;stroke:none;stroke-width:0.59029078;marker:none;enable-background:accumulate"
         sodipodi:type="arc" />
      <ellipse
         transform="rotate(90)"
         ry="207.43559"
         rx="207.43558"
         cy="-859.62817"
         cx="535.43524"
         id="path1771"
         style="opacity:1;fill:none;fill-opacity:1;fill-rule:nonzero;stroke:none;stroke-width:0.12884209;stroke-linecap:square;stroke-linejoin:bevel;stroke-miterlimit:4;stroke-dasharray:none;stroke-dashoffset:0;stroke-opacity:1" />
      <ellipse
         transform="matrix(0,-1,-1,0,0,0)"
         ry="229.9286"
         rx="229.92859"
         cy="-859.62817"
         cx="-534.85474"
         id="path1771-5"
         style="opacity:1;fill:none;fill-opacity:1;fill-rule:nonzero;stroke:none;stroke-width:0.14281292;stroke-linecap:square;stroke-linejoin:bevel;stroke-miterlimit:4;stroke-dasharray:none;stroke-dashoffset:0;stroke-opacity:1" />
      <circle
         r="3.9340773"
         cy="741.19989"
         cx="796.33154"
         id="path1900"
         style="opacity:1;fill:#006c35;fill-opacity:1;fill-rule:nonzero;stroke:#006c35;stroke-width:0.131846;stroke-linecap:square;stroke-linejoin:bevel;stroke-miterlimit:4;stroke-dasharray:none;stroke-dashoffset:0;stroke-opacity:1" />
      <circle
         r="3.9340773"
         cy="743.75659"
         cx="918.96826"
         id="path1900-5"
         style="opacity:1;fill:#006c35;fill-opacity:1;fill-rule:nonzero;stroke:#006c35;stroke-width:0.131846;stroke-linecap:square;stroke-linejoin:bevel;stroke-miterlimit:4;stroke-dasharray:none;stroke-dashoffset:0;stroke-opacity:1" />
      <path
         sodipodi:open="true"
         d="M 754.75359,713.515 A 206.99886,206.99886 0 0 1 660.85008,479.23391 206.99886,206.99886 0 0 1 863.18817,328.35385 206.99886,206.99886 0 0 1 1060.9396,485.19733 206.99886,206.99886 0 0 1 960.0953,716.57566"
         sodipodi:arc-type="arc"
         sodipodi:end="1.0666541"
         sodipodi:start="2.1047468"
         sodipodi:ry="206.99886"
         sodipodi:rx="206.99886"
         sodipodi:cy="535.32971"
         sodipodi:cx="860.10315"
         sodipodi:type="arc"
         id="path3648"
         style="fill:none;stroke:none;stroke-width:1.00229;stroke-dasharray:none;stroke-opacity:1" />
      <path
         sodipodi:open="true"
         d="m 810.45712,-757.49278 a 228.00327,228.00327 0 0 1 124.72225,7.51597"
         sodipodi:arc-type="arc"
         sodipodi:end="5.0501338"
         sodipodi:start="4.4950219"
         sodipodi:ry="228.00327"
         sodipodi:rx="228.00327"
         sodipodi:cy="-534.85474"
         sodipodi:cx="859.62817"
         sodipodi:type="arc"
         transform="scale(1,-1)"
         id="path3648-1"
         style="fill:none;stroke:none;stroke-width:0.993484;stroke-dasharray:none;stroke-opacity:1" />
      <g
         id="text987"
         style="font-style:normal;font-weight:normal;font-size:40px;line-height:1.25;font-family:sans-serif;letter-spacing:0px;word-spacing:0px;fill:#006c35;fill-opacity:1;stroke:none"
         aria-label="1987">
        <path
           id="path1099"
           style="font-style:normal;font-variant:normal;font-weight:bold;font-stretch:normal;font-size:34.66666794px;font-family:'Times New Roman';-inkscape-font-specification:'Times New Roman, Bold';letter-spacing:6px;fill:#006c35;fill-opacity:1"
           d="m 828.76003,736.92064 -3.13517,18.50847 q -0.35338,2.08617 -0.26874,2.7014 0.0875,0.59853 0.60939,1.06464 0.52194,0.46611 1.80702,0.68379 l 0.51737,0.0876 -0.1046,0.61751 -11.91619,-2.0185 0.1046,-0.6175 0.60081,0.10177 q 1.45198,0.24595 2.12602,0.0168 0.67405,-0.22918 0.98995,-0.77656 0.31591,-0.54737 0.67777,-2.68361 l 1.9874,-11.73261 q 0.26574,-1.56879 0.18056,-1.97809 -0.0824,-0.42599 -0.45436,-0.7637 -0.35248,-0.35156 -0.88654,-0.44203 -0.85116,-0.14418 -2.15994,0.18351 l -0.19864,-0.6517 8.97254,-2.39449 z" />
        <path
           id="path1101"
           style="font-style:normal;font-variant:normal;font-weight:bold;font-stretch:normal;font-size:34.66666794px;font-family:'Times New Roman';-inkscape-font-specification:'Times New Roman, Bold';letter-spacing:6px;fill:#006c35;fill-opacity:1"
           d="m 837.80948,762.27537 0.0312,-0.47294 q 2.84611,-0.45704 4.87089,-1.57891 2.04167,-1.12075 3.29468,-2.88722 1.26989,-1.76536 1.88401,-4.13375 -1.08283,0.47148 -1.84048,0.64207 -0.73965,0.15482 -1.55039,0.10138 -2.60113,-0.17144 -4.21727,-2.16094 -1.59926,-1.98839 -1.38441,-5.24824 0.14918,-2.26332 1.20172,-4.07693 1.07055,-1.82939 2.87817,-2.74504 1.80874,-0.93255 3.68357,-0.80898 2.00997,0.13248 3.72465,1.39903 1.71469,1.26655 2.63518,3.51555 0.92049,2.249 0.73681,5.03593 -0.23824,3.61455 -2.19615,6.81041 -1.94101,3.19698 -5.50225,4.98095 -3.56012,1.76709 -8.2499,1.62763 z m 10.42762,-10.47491 q 0.29358,-1.8806 0.38821,-3.31629 0.20261,-3.07406 -0.33201,-5.77261 -0.30852,-1.49619 -1.05673,-2.24102 -0.39777,-0.39942 -1.07339,-0.44395 -0.84452,-0.0557 -1.36532,0.63946 -0.72441,0.95312 -0.9092,3.75693 -0.30837,4.67865 0.68951,6.52562 0.65059,1.19642 1.88359,1.27769 0.65873,0.0434 1.77534,-0.42583 z" />
        <path
           id="path1103"
           style="font-style:normal;font-variant:normal;font-weight:bold;font-stretch:normal;font-size:34.66666794px;font-family:'Times New Roman';-inkscape-font-specification:'Times New Roman, Bold';letter-spacing:6px;fill:#006c35;fill-opacity:1"
           d="m 871.40877,749.56279 q 2.48506,1.686 3.47275,3.19064 1.00397,1.4871 1.07769,3.4662 0.10334,2.77411 -1.92233,4.7806 -2.00938,1.98894 -5.59543,2.12253 -3.39999,0.12665 -5.32306,-1.47866 -1.92307,-1.6053 -2.01318,-4.0242 -0.0687,-1.84377 0.94531,-3.27053 1.03091,-1.42738 3.49154,-2.67089 -2.80088,-1.97913 -3.62813,-3.26955 -0.81035,-1.29104 -0.87525,-3.03332 -0.0857,-2.30049 1.79467,-4.11523 1.89664,-1.83229 5.29663,-1.95895 3.28158,-0.12224 5.09875,1.36844 1.83345,1.47313 1.91411,3.6383 0.0605,1.62387 -0.85706,2.91152 -0.90126,1.27011 -2.87701,2.3431 z m -1.3177,-0.81479 q 0.59436,-0.86908 0.85977,-1.92918 0.26541,-1.06009 0.21878,-2.31183 -0.0819,-2.19899 -1.07266,-3.33087 -0.74384,-0.87005 -1.99557,-0.82342 -1.13333,0.0422 -1.89748,0.90069 -0.76477,0.84155 -0.7194,2.05946 0.046,1.23482 0.97537,2.53837 0.94567,1.286 3.63119,2.89678 z m -3.25011,3.69516 q -0.50674,0.49317 -0.71214,0.89041 -0.31626,0.60464 -0.54468,1.74805 -0.22843,1.14341 -0.18243,2.37823 0.0592,1.59004 0.50553,2.6575 0.44566,1.05055 1.20758,1.49645 0.77884,0.44528 1.57386,0.41566 1.23482,-0.046 2.04719,-0.97402 0.81174,-0.94493 0.75314,-2.51806 -0.12225,-3.28158 -4.64805,-6.09422 z" />
        <path
           id="path1105"
           style="font-style:normal;font-variant:normal;font-weight:bold;font-stretch:normal;font-size:34.66666794px;font-family:'Times New Roman';-inkscape-font-specification:'Times New Roman, Bold';letter-spacing:6px;fill:#006c35;fill-opacity:1"
           d="m 889.54514,761.3887 3.52961,-19.62988 -4.70955,0.66667 q -2.7654,0.39146 -4.05446,1.30906 -0.90091,0.6404 -1.34087,2.12164 l -0.63688,0.0901 0.64366,-7.28846 13.54207,-1.91698 -4.34226,24.27532 z" />
      </g>
    </g>
  </g>
  <g
     inkscape:groupmode="layer"
     id="layer3"
     inkscape:label="Tree"
     style="display:inline"
     transform="translate(-612.15509,-287.67891)" />
  <g
     inkscape:groupmode="layer"
     id="layer2"
     inkscape:label="Green"
     style="display:inline"
     transform="translate(-612.15509,-287.67891)" />
  <g
     inkscape:groupmode="layer"
     id="layer4"
     inkscape:label="Lines"
     style="display:inline"
     transform="translate(-612.15509,-287.67891)" />
</svg>
